<svg version="1.1" xmlns="http://www.w3.org/2000/svg" xmlns:xlink="http://www.w3.org/1999/xlink" width="483" height="383" viewBox="0,0,483,383"><g transform="translate(-206.45312,1.5)"><g data-paper-data="{&quot;isPaintingLayer&quot;:true}" fill-rule="nonzero" stroke="none" stroke-width="0" stroke-linecap="butt" stroke-linejoin="miter" stroke-miterlimit="10" stroke-dasharray="" stroke-dashoffset="0" style="mix-blend-mode: normal"><path d="" fill="#423e6f"/><path d="" fill="#423e6f"/><path d="" fill="#423e6f"/><path d="" fill="#423e6f"/><path d="" fill="#423e6f"/><path d="" fill="#423e6f"/><path d="" fill="#423e6f"/><path d="" fill="#423e6f"/><path d="" fill="#423e6f"/><path d="M206.45313,119.5v-117h18v117z" fill="#423e6f"/><path d="" fill="#423e6f"/><path d="" fill="#423e6f"/><path d="" fill="#423e6f"/><path d="M208.45313,381.5v-140h19v140z" fill="#423e6f"/><path d="M215.45313,319.5v-8h9v8z" fill="#423e6f"/><path d="M391.45313,365.5v-85h16v85z" fill="#423e6f"/><path d="M384.45313,319.5v-6h3v6z" fill="#423e6f"/><path d="" fill="#423e6f"/><path d="" fill="#423e6f"/><path d="M404.97313,29.5v-27h-1.08v27z" fill="#423e6f"/><path d="M400.45313,134.5v-136h15v136z" fill="#423e6f"/><path d="M406.45313,55.5v-6h2v6z" fill="#423e6f"/><path d="M291.45313,177.5v-174h21v174z" fill="#423e6f"/><path d="M371.45313,152.5v-4h1v4z" fill="#423e6f"/><path d="M614.45313,93.5v-1h1v1z" fill="#423e6f"/><path d="M688.45313,110.5v-4h1v4z" fill="#423e6f"/></g></g></svg>